<svg width="283" height="195" viewBox="0 0 283 195" fill="none" xmlns="http://www.w3.org/2000/svg">
<rect width="283" height="195" rx="15" fill="white"/>
<rect x="25" y="19" width="233" height="157" rx="15" fill="#F3F3F3"/>
<rect x="41" y="36" width="36" height="14" rx="3" fill="#D9D9D9"/>
<rect x="41" y="57" width="36" height="7" rx="3" fill="#D9D9D9"/>
<rect x="41" y="67" width="36" height="7" rx="3" fill="#E7E7E7"/>
<rect x="41" y="77" width="36" height="7" rx="3" fill="#EDEDED"/>
<rect x="41" y="87" width="36" height="7" rx="3" fill="#F0F0F0"/>
<rect x="100" y="36" width="58" height="28" rx="3" fill="#D9D9D9"/>
<rect x="181" y="36" width="58" height="28" rx="3" fill="#D9D9D9"/>
<rect x="100" y="74" width="139" height="83" rx="3" fill="#FBFBFB"/>
<rect x="104" y="77" width="32" height="10" rx="3" fill="#D9D9D9"/>
<rect x="144" y="77" width="32" height="10" rx="3" fill="#D9D9D9"/>
<rect x="111" y="138" width="7" height="19" fill="#D9D9D9"/>
<rect x="120" y="129" width="7" height="28" fill="#D9D9D9"/>
<rect x="129" y="120" width="7" height="37" fill="#D9D9D9"/>
<rect x="138" y="112" width="7" height="45" fill="#D9D9D9"/>
<rect x="147" y="103" width="7" height="54" fill="#D9D9D9"/>
<rect x="174" y="129" width="7" height="28" fill="#D9D9D9"/>
<rect x="183" y="107" width="7" height="50" fill="#D9D9D9"/>
<rect x="192" y="116" width="7" height="41" fill="#D9D9D9"/>
<rect x="201" y="96" width="7" height="61" fill="#80B6A2"/>
<rect x="210" y="124" width="7" height="33" fill="#D9D9D9"/>
<rect x="219" y="133" width="7" height="24" fill="#D9D9D9"/>
<rect x="165" y="120" width="7" height="37" fill="#D9D9D9"/>
<rect x="156" y="110" width="7" height="47" fill="#D9D9D9"/>
</svg>
