<svg xmlns="http://www.w3.org/2000/svg" xmlns:xlink="http://www.w3.org/1999/xlink" width="500" zoomAndPan="magnify" viewBox="0 0 375 374.999991" height="500" preserveAspectRatio="xMidYMid meet" version="1.0"><defs><g/></defs><g fill="#000000" fill-opacity="1"><g transform="translate(24.036125, 213.374986)"><g><path d="M 1.953125 -51.859375 C 1.953125 -55.828125 3.015625 -59.488281 5.140625 -62.84375 C 7.265625 -66.195312 10.148438 -68.898438 13.796875 -70.953125 C 17.441406 -73.015625 21.539062 -74.046875 26.09375 -74.046875 C 28.757812 -74.046875 31.140625 -73.628906 33.234375 -72.796875 C 35.328125 -71.960938 37.21875 -70.988281 38.90625 -69.875 C 40.601562 -68.757812 42.175781 -67.785156 43.625 -66.953125 C 45.070312 -66.117188 46.441406 -65.703125 47.734375 -65.703125 C 50.484375 -65.703125 52.253906 -66.40625 53.046875 -67.8125 C 53.835938 -69.21875 54.234375 -71.113281 54.234375 -73.5 L 56.71875 -73.5 C 57.082031 -70.539062 57.117188 -67.488281 56.828125 -64.34375 C 56.535156 -61.207031 55.738281 -58.304688 54.4375 -55.640625 C 53.144531 -52.972656 51.234375 -50.804688 48.703125 -49.140625 C 46.179688 -47.484375 42.898438 -46.65625 38.859375 -46.65625 C 36.191406 -46.65625 33.828125 -47.25 31.765625 -48.4375 C 29.710938 -49.632812 27.851562 -51.113281 26.1875 -52.875 C 24.53125 -54.644531 23.035156 -56.445312 21.703125 -58.28125 C 20.367188 -60.125 19.066406 -61.710938 17.796875 -63.046875 C 16.535156 -64.390625 15.238281 -65.203125 13.90625 -65.484375 C 12.570312 -65.773438 11.113281 -65.269531 9.53125 -63.96875 C 7.789062 -62.53125 7.515625 -60.742188 8.703125 -58.609375 C 9.898438 -56.484375 12.410156 -54.320312 16.234375 -52.125 C 20.054688 -49.925781 25 -47.957031 31.0625 -46.21875 C 33.375 -45.570312 36.097656 -44.648438 39.234375 -43.453125 C 42.378906 -42.265625 45.46875 -40.710938 48.5 -38.796875 C 51.53125 -36.890625 54.054688 -34.566406 56.078125 -31.828125 C 58.097656 -29.085938 59.109375 -25.835938 59.109375 -22.078125 C 59.109375 -18.035156 58.023438 -14.28125 55.859375 -10.8125 C 53.691406 -7.351562 50.765625 -4.5625 47.078125 -2.4375 C 43.398438 -0.3125 39.21875 0.75 34.53125 0.75 C 31.863281 0.75 29.410156 0.316406 27.171875 -0.546875 C 24.929688 -1.410156 22.875 -2.382812 21 -3.46875 C 19.125 -4.550781 17.390625 -5.523438 15.796875 -6.390625 C 14.210938 -7.253906 12.734375 -7.6875 11.359375 -7.6875 C 8.691406 -7.6875 6.941406 -6.984375 6.109375 -5.578125 C 5.285156 -4.171875 4.875 -2.273438 4.875 0.109375 L 2.484375 0.109375 C 2.054688 -2.847656 2.003906 -5.894531 2.328125 -9.03125 C 2.648438 -12.175781 3.460938 -15.082031 4.765625 -17.75 C 6.066406 -20.425781 7.976562 -22.59375 10.5 -24.25 C 13.019531 -25.90625 16.269531 -26.734375 20.25 -26.734375 C 22.914062 -26.734375 25.332031 -26.140625 27.5 -24.953125 C 29.664062 -23.765625 31.628906 -22.265625 33.390625 -20.453125 C 35.160156 -18.648438 36.800781 -16.828125 38.3125 -14.984375 C 39.832031 -13.148438 41.273438 -11.566406 42.640625 -10.234375 C 44.015625 -8.898438 45.390625 -8.085938 46.765625 -7.796875 C 48.140625 -7.503906 49.582031 -8.007812 51.09375 -9.3125 C 52.820312 -10.820312 52.910156 -12.695312 51.359375 -14.9375 C 49.804688 -17.175781 46.992188 -19.445312 42.921875 -21.75 C 38.847656 -24.0625 33.742188 -26.117188 27.609375 -27.921875 C 22.703125 -29.367188 18.296875 -31.03125 14.390625 -32.90625 C 10.492188 -34.78125 7.445312 -37.210938 5.25 -40.203125 C 3.050781 -43.203125 1.953125 -47.085938 1.953125 -51.859375 Z M 1.953125 -51.859375 "/></g></g></g><g fill="#000000" fill-opacity="1"><g transform="translate(81.83913, 213.374986)"><g><path d="M 33.984375 0 L 1.953125 0 C 1.953125 -3.894531 2.523438 -7.972656 3.671875 -12.234375 C 4.828125 -16.492188 6.328125 -20.710938 8.171875 -24.890625 C 10.015625 -29.078125 11.960938 -33.007812 14.015625 -36.6875 C 16.078125 -40.375 18.007812 -43.585938 19.8125 -46.328125 C 21.039062 -48.203125 22.375 -50.078125 23.8125 -51.953125 C 25.257812 -53.835938 26.664062 -55.644531 28.03125 -57.375 C 26.664062 -61.914062 25.332031 -65.34375 24.03125 -67.65625 C 22.726562 -69.96875 20.851562 -71.125 18.40625 -71.125 L 18.40625 -73.9375 C 23.882812 -73.9375 28.695312 -73.210938 32.84375 -71.765625 C 37 -70.328125 40.570312 -68.414062 43.5625 -66.03125 C 46.5625 -63.644531 49.035156 -60.972656 50.984375 -58.015625 C 52.929688 -55.054688 54.410156 -52.0625 55.421875 -49.03125 C 57.734375 -42.101562 59.644531 -35.5 61.15625 -29.21875 C 62.675781 -22.945312 64.519531 -17.285156 66.6875 -12.234375 C 68.050781 -9.128906 69.90625 -7.414062 72.25 -7.09375 C 74.601562 -6.769531 76.644531 -7.507812 78.375 -9.3125 L 80.21875 -7.359375 C 78.050781 -4.328125 75.394531 -2.21875 72.25 -1.03125 C 69.113281 0.15625 66.175781 0.75 63.4375 0.75 C 59.46875 0.75 55.875 -0.222656 52.65625 -2.171875 C 49.445312 -4.117188 46.722656 -6.660156 44.484375 -9.796875 C 42.253906 -12.929688 40.523438 -16.269531 39.296875 -19.8125 L 23.171875 -19.8125 C 24.390625 -15.914062 25.957031 -12.234375 27.875 -8.765625 C 29.789062 -5.304688 31.828125 -2.382812 33.984375 0 Z M 38.421875 -22.40625 C 36.835938 -27.382812 35.269531 -32.6875 33.71875 -38.3125 C 32.164062 -43.945312 30.597656 -49.289062 29.015625 -54.34375 C 28.359375 -53.40625 27.707031 -52.503906 27.0625 -51.640625 C 26.414062 -50.773438 25.765625 -49.835938 25.109375 -48.828125 C 22.660156 -45.140625 21.328125 -40.96875 21.109375 -36.3125 C 20.890625 -31.65625 21.359375 -27.019531 22.515625 -22.40625 Z M 38.421875 -22.40625 "/></g></g></g><g fill="#000000" fill-opacity="1"><g transform="translate(151.440959, 213.374986)"><g><path d="M 59.421875 -28.46875 C 59.859375 -26.519531 60.113281 -24.28125 60.1875 -21.75 C 60.257812 -19.226562 60.023438 -16.648438 59.484375 -14.015625 C 58.941406 -11.378906 57.945312 -8.941406 56.5 -6.703125 C 55.0625 -4.472656 53.003906 -2.671875 50.328125 -1.296875 C 47.660156 0.0664062 44.269531 0.75 40.15625 0.75 C 36.914062 0.75 34.175781 0.351562 31.9375 -0.4375 C 29.695312 -1.226562 27.765625 -2.203125 26.140625 -3.359375 C 24.515625 -4.515625 23.070312 -5.648438 21.8125 -6.765625 C 20.550781 -7.878906 19.320312 -8.832031 18.125 -9.625 C 16.9375 -10.425781 15.585938 -10.828125 14.078125 -10.828125 C 11.546875 -10.828125 9.648438 -10.285156 8.390625 -9.203125 C 7.128906 -8.117188 6.28125 -6.742188 5.84375 -5.078125 C 5.414062 -3.421875 5.203125 -1.726562 5.203125 0 L 2.484375 0 L 2.484375 -73.390625 L 26.203125 -73.390625 L 26.203125 -39.515625 C 26.203125 -36.984375 25.625 -35.03125 24.46875 -33.65625 C 23.3125 -32.289062 21.828125 -31.15625 20.015625 -30.25 C 18.210938 -29.351562 16.335938 -28.34375 14.390625 -27.21875 C 12.441406 -26.101562 10.691406 -24.609375 9.140625 -22.734375 C 7.585938 -20.859375 6.453125 -18.222656 5.734375 -14.828125 C 8.117188 -19.304688 11.296875 -22.519531 15.265625 -24.46875 C 19.234375 -26.414062 23.09375 -27.390625 26.84375 -27.390625 C 29.507812 -27.390625 31.925781 -26.957031 34.09375 -26.09375 C 36.257812 -25.226562 38.226562 -24.253906 40 -23.171875 C 41.769531 -22.085938 43.394531 -21.109375 44.875 -20.234375 C 46.351562 -19.367188 47.738281 -18.9375 49.03125 -18.9375 C 50.84375 -18.9375 52.34375 -19.492188 53.53125 -20.609375 C 54.71875 -21.734375 55.597656 -23.050781 56.171875 -24.5625 C 56.753906 -26.082031 56.9375 -27.421875 56.71875 -28.578125 Z M 59.421875 -28.46875 "/></g></g></g><g fill="#000000" fill-opacity="1"><g transform="translate(210.326426, 213.374986)"><g><path d="M 28.03125 0.75 C 26.882812 0.75 25.640625 0.675781 24.296875 0.53125 C 22.960938 0.394531 21.71875 0.21875 20.5625 0 L 2.484375 0 L 2.484375 -50.65625 C 2.484375 -55.351562 3.296875 -59.21875 4.921875 -62.25 C 6.546875 -65.28125 8.640625 -67.660156 11.203125 -69.390625 C 13.765625 -71.117188 16.539062 -72.34375 19.53125 -73.0625 C 22.53125 -73.789062 25.363281 -74.15625 28.03125 -74.15625 C 33.082031 -74.15625 37.828125 -73.179688 42.265625 -71.234375 C 46.703125 -69.285156 50.597656 -66.59375 53.953125 -63.15625 C 57.316406 -59.726562 59.953125 -55.757812 61.859375 -51.25 C 63.773438 -46.738281 64.734375 -41.890625 64.734375 -36.703125 C 64.734375 -31.503906 63.773438 -26.648438 61.859375 -22.140625 C 59.953125 -17.628906 57.316406 -13.660156 53.953125 -10.234375 C 50.597656 -6.804688 46.703125 -4.117188 42.265625 -2.171875 C 37.828125 -0.222656 33.082031 0.75 28.03125 0.75 Z M 15.59375 -66.46875 C 13.78125 -66.96875 12.441406 -66.894531 11.578125 -66.25 C 10.710938 -65.601562 10.222656 -64.738281 10.109375 -63.65625 C 10.003906 -62.570312 10.132812 -61.5625 10.5 -60.625 C 11.007812 -59.320312 11.875 -58.253906 13.09375 -57.421875 C 14.320312 -56.597656 15.675781 -55.769531 17.15625 -54.9375 C 18.632812 -54.101562 20.054688 -53.144531 21.421875 -52.0625 C 22.796875 -50.976562 23.9375 -49.550781 24.84375 -47.78125 C 25.75 -46.019531 26.203125 -43.734375 26.203125 -40.921875 L 26.203125 -17.109375 C 30.023438 -12.921875 33.753906 -9.890625 37.390625 -8.015625 C 41.035156 -6.140625 43.976562 -5.882812 46.21875 -7.25 C 48.3125 -8.550781 49.394531 -11.054688 49.46875 -14.765625 C 49.539062 -18.484375 48.707031 -22.882812 46.96875 -27.96875 C 45.238281 -33.0625 42.679688 -38.28125 39.296875 -43.625 C 36.765625 -47.664062 34.054688 -51.304688 31.171875 -54.546875 C 28.285156 -57.796875 25.488281 -60.445312 22.78125 -62.5 C 20.082031 -64.5625 17.6875 -65.882812 15.59375 -66.46875 Z M 15.59375 -66.46875 "/></g></g></g><g fill="#000000" fill-opacity="1"><g transform="translate(273.649969, 213.374986)"><g><path d="M 38.640625 -74.046875 C 43.765625 -74.046875 48.523438 -73.085938 52.921875 -71.171875 C 57.328125 -69.265625 61.226562 -66.59375 64.625 -63.15625 C 68.019531 -59.726562 70.65625 -55.757812 72.53125 -51.25 C 74.40625 -46.738281 75.34375 -41.890625 75.34375 -36.703125 C 75.34375 -31.503906 74.40625 -26.648438 72.53125 -22.140625 C 70.65625 -17.628906 68.019531 -13.660156 64.625 -10.234375 C 61.226562 -6.804688 57.328125 -4.117188 52.921875 -2.171875 C 48.523438 -0.222656 43.765625 0.75 38.640625 0.75 C 33.585938 0.75 28.84375 -0.222656 24.40625 -2.171875 C 19.96875 -4.117188 16.070312 -6.804688 12.71875 -10.234375 C 9.363281 -13.660156 6.726562 -17.628906 4.8125 -22.140625 C 2.90625 -26.648438 1.953125 -31.503906 1.953125 -36.703125 C 1.953125 -41.890625 2.90625 -46.738281 4.8125 -51.25 C 6.726562 -55.757812 9.363281 -59.726562 12.71875 -63.15625 C 16.070312 -66.59375 19.96875 -69.265625 24.40625 -71.171875 C 28.84375 -73.085938 33.585938 -74.046875 38.640625 -74.046875 Z M 56.9375 -7.25 C 59.03125 -8.550781 60.09375 -11.054688 60.125 -14.765625 C 60.164062 -18.484375 59.316406 -22.882812 57.578125 -27.96875 C 55.847656 -33.0625 53.289062 -38.28125 49.90625 -43.625 C 46.582031 -49.039062 43.023438 -53.660156 39.234375 -57.484375 C 35.453125 -61.304688 31.878906 -64.007812 28.515625 -65.59375 C 25.160156 -67.1875 22.4375 -67.332031 20.34375 -66.03125 C 18.320312 -64.726562 17.273438 -62.238281 17.203125 -58.5625 C 17.140625 -54.882812 17.988281 -50.5 19.75 -45.40625 C 21.519531 -40.320312 24.066406 -35.070312 27.390625 -29.65625 C 30.773438 -24.25 34.363281 -19.628906 38.15625 -15.796875 C 41.945312 -11.972656 45.519531 -9.285156 48.875 -7.734375 C 52.226562 -6.179688 54.914062 -6.019531 56.9375 -7.25 Z M 56.9375 -7.25 "/></g></g></g></svg>