<svg xmlns="http://www.w3.org/2000/svg" xmlns:xlink="http://www.w3.org/1999/xlink" width="500" zoomAndPan="magnify" viewBox="0 0 375 374.999991" height="500" preserveAspectRatio="xMidYMid meet" version="1.0"><defs><g/></defs><g fill="#000000" fill-opacity="1"><g transform="translate(64.420418, 332.196582)"><g><path d="M 7.859375 -209.046875 C 7.859375 -225.054688 12.148438 -239.820312 20.734375 -253.34375 C 29.316406 -266.875 40.953125 -277.785156 55.640625 -286.078125 C 70.335938 -294.367188 86.851562 -298.515625 105.1875 -298.515625 C 115.945312 -298.515625 125.546875 -296.84375 133.984375 -293.5 C 142.421875 -290.15625 150.054688 -286.226562 156.890625 -281.71875 C 163.734375 -277.207031 170.0625 -273.28125 175.875 -269.9375 C 181.695312 -266.59375 187.226562 -264.921875 192.46875 -264.921875 C 203.519531 -264.921875 210.644531 -267.753906 213.84375 -273.421875 C 217.050781 -279.097656 218.65625 -286.738281 218.65625 -296.34375 L 228.6875 -296.34375 C 230.144531 -284.414062 230.289062 -272.125 229.125 -259.46875 C 227.96875 -246.8125 224.769531 -235.097656 219.53125 -224.328125 C 214.289062 -213.566406 206.578125 -204.835938 196.390625 -198.140625 C 186.210938 -191.453125 172.976562 -188.109375 156.6875 -188.109375 C 145.914062 -188.109375 136.382812 -190.503906 128.09375 -195.296875 C 119.800781 -200.097656 112.304688 -206.0625 105.609375 -213.1875 C 98.921875 -220.320312 92.882812 -227.597656 87.5 -235.015625 C 82.125 -242.441406 76.890625 -248.84375 71.796875 -254.21875 C 66.703125 -259.601562 61.460938 -262.878906 56.078125 -264.046875 C 50.703125 -265.210938 44.8125 -263.175781 38.40625 -257.9375 C 31.425781 -252.113281 30.332031 -244.910156 35.125 -236.328125 C 39.925781 -227.742188 50.035156 -219.015625 65.453125 -210.140625 C 80.878906 -201.265625 100.8125 -193.335938 125.25 -186.359375 C 134.5625 -183.742188 145.546875 -180.035156 158.203125 -175.234375 C 170.859375 -170.429688 183.296875 -164.171875 195.515625 -156.453125 C 207.742188 -148.742188 217.929688 -139.363281 226.078125 -128.3125 C 234.222656 -117.257812 238.296875 -104.164062 238.296875 -89.03125 C 238.296875 -72.738281 233.929688 -57.609375 225.203125 -43.640625 C 216.472656 -29.671875 204.6875 -18.394531 189.84375 -9.8125 C 175.007812 -1.226562 158.132812 3.0625 139.21875 3.0625 C 128.457031 3.0625 118.566406 1.316406 109.546875 -2.171875 C 100.523438 -5.671875 92.234375 -9.601562 84.671875 -13.96875 C 77.109375 -18.332031 70.125 -22.257812 63.71875 -25.75 C 57.320312 -29.238281 51.359375 -30.984375 45.828125 -30.984375 C 35.054688 -30.984375 28 -28.144531 24.65625 -22.46875 C 21.3125 -16.800781 19.640625 -9.164062 19.640625 0.4375 L 10.03125 0.4375 C 8.289062 -11.488281 8.070312 -23.78125 9.375 -36.4375 C 10.6875 -49.09375 13.960938 -60.800781 19.203125 -71.5625 C 24.441406 -82.332031 32.148438 -91.0625 42.328125 -97.75 C 52.515625 -104.445312 65.609375 -107.796875 81.609375 -107.796875 C 92.378906 -107.796875 102.128906 -105.394531 110.859375 -100.59375 C 119.585938 -95.789062 127.515625 -89.753906 134.640625 -82.484375 C 141.765625 -75.210938 148.382812 -67.863281 154.5 -60.4375 C 160.613281 -53.019531 166.429688 -46.617188 171.953125 -41.234375 C 177.484375 -35.859375 183.007812 -32.585938 188.53125 -31.421875 C 194.0625 -30.253906 199.882812 -32.289062 206 -37.53125 C 212.976562 -43.644531 213.335938 -51.210938 207.078125 -60.234375 C 200.828125 -69.253906 189.484375 -78.414062 173.046875 -87.71875 C 156.609375 -97.03125 136.023438 -105.320312 111.296875 -112.59375 C 91.503906 -118.414062 73.753906 -125.109375 58.046875 -132.671875 C 42.335938 -140.242188 30.046875 -150.066406 21.171875 -162.140625 C 12.296875 -174.210938 7.859375 -189.847656 7.859375 -209.046875 Z M 7.859375 -209.046875 "/></g></g></g></svg>