<svg width="305" height="80" viewBox="0 0 305 80" fill="none" xmlns="http://www.w3.org/2000/svg">
<path d="M28.1516 1C43.0355 1.00021 55.0509 12.7113 55.051 27.0967C55.051 41.4821 43.0356 53.1932 28.1516 53.1934C13.2674 53.1934 1.25116 41.4822 1.25116 27.0967C1.25121 12.7112 13.2674 1 28.1516 1Z" stroke="#576447" stroke-width="2"/>
<path d="M38.7793 1C56.5984 1 70.994 15.0219 70.9942 32.2578C70.9942 49.4938 56.5985 63.5166 38.7793 63.5166C20.9603 63.5164 6.56544 49.4937 6.56544 32.2578C6.56559 15.022 20.9604 1.00022 38.7793 1Z" stroke="#576447" stroke-width="2"/>
<path d="M50.7371 1C70.724 1.00011 86.9371 17.2998 86.9373 37.4189C86.9373 57.5383 70.7242 73.8388 50.7371 73.8389C30.7499 73.8389 14.5369 57.5383 14.5369 37.4189C14.5371 17.2997 30.75 1 50.7371 1Z" stroke="#576447" stroke-width="2"/>
<path d="M106.319 51.36C105.719 51.36 105.169 51.29 104.669 51.15C104.189 51.03 103.759 50.87 103.379 50.67C103.019 50.45 102.709 50.22 102.449 49.98C102.209 49.72 102.029 49.48 101.909 49.26H101.789V51H98.3088V44.88H101.789V46.17C101.789 47.25 102.169 48.02 102.929 48.48C103.689 48.92 104.729 49.14 106.049 49.14C107.429 49.14 108.449 48.86 109.109 48.3C109.789 47.74 110.129 47.01 110.129 46.11C110.129 45.67 110.069 45.29 109.949 44.97C109.849 44.65 109.669 44.38 109.409 44.16C109.149 43.92 108.799 43.72 108.359 43.56C107.919 43.38 107.369 43.22 106.709 43.08L105.359 42.78C104.339 42.58 103.399 42.31 102.539 41.97C101.699 41.61 100.979 41.15 100.379 40.59C99.7788 40.03 99.3088 39.36 98.9688 38.58C98.6488 37.8 98.4888 36.88 98.4888 35.82C98.4888 34.92 98.6488 34.1 98.9688 33.36C99.2888 32.6 99.7488 31.95 100.349 31.41C100.949 30.87 101.689 30.45 102.569 30.15C103.469 29.85 104.489 29.7 105.629 29.7C106.249 29.7 106.799 29.77 107.279 29.91C107.779 30.03 108.209 30.19 108.569 30.39C108.949 30.59 109.259 30.82 109.499 31.08C109.739 31.32 109.919 31.55 110.039 31.77H110.159V30.06H113.639V36.18H110.159V34.86C110.159 33.8 109.789 33.05 109.049 32.61C108.309 32.15 107.349 31.92 106.169 31.92C104.809 31.92 103.809 32.21 103.169 32.79C102.549 33.35 102.239 34.03 102.239 34.83C102.239 35.29 102.309 35.68 102.449 36C102.589 36.32 102.809 36.6 103.109 36.84C103.429 37.08 103.839 37.29 104.339 37.47C104.839 37.63 105.449 37.79 106.169 37.95L107.429 38.19C108.469 38.41 109.399 38.7 110.219 39.06C111.059 39.4 111.759 39.84 112.319 40.38C112.899 40.92 113.339 41.56 113.639 42.3C113.939 43.02 114.089 43.86 114.089 44.82C114.089 45.76 113.909 46.63 113.549 47.43C113.189 48.23 112.669 48.92 111.989 49.5C111.329 50.08 110.519 50.54 109.559 50.88C108.599 51.2 107.519 51.36 106.319 51.36ZM121.466 51.36C119.766 51.36 118.526 50.97 117.746 50.19C116.986 49.39 116.606 48.28 116.606 46.86C116.606 43.76 118.896 42.21 123.476 42.21H125.576V40.5C125.576 39.28 125.346 38.36 124.886 37.74C124.426 37.12 123.626 36.81 122.486 36.81C122.066 36.81 121.706 36.84 121.406 36.9C121.106 36.96 120.846 37.04 120.626 37.14V37.29C120.826 37.39 121.016 37.57 121.196 37.83C121.396 38.09 121.496 38.44 121.496 38.88C121.496 39.48 121.306 39.99 120.926 40.41C120.546 40.81 119.976 41.01 119.216 41.01C118.616 41.01 118.116 40.8 117.716 40.38C117.316 39.96 117.116 39.43 117.116 38.79C117.116 38.31 117.256 37.84 117.536 37.38C117.816 36.9 118.236 36.48 118.796 36.12C119.356 35.76 120.046 35.47 120.866 35.25C121.706 35.03 122.666 34.92 123.746 34.92C125.926 34.92 127.536 35.39 128.576 36.33C129.616 37.25 130.136 38.56 130.136 40.26V49.02H131.936V50.73C131.596 50.93 131.156 51.08 130.616 51.18C130.076 51.3 129.516 51.36 128.936 51.36C127.836 51.36 127.056 51.11 126.596 50.61C126.156 50.09 125.936 49.45 125.936 48.69V48.63H125.756C125.616 48.97 125.436 49.3 125.216 49.62C125.016 49.94 124.746 50.23 124.406 50.49C124.086 50.75 123.686 50.96 123.206 51.12C122.726 51.28 122.146 51.36 121.466 51.36ZM123.176 48.66C123.916 48.66 124.496 48.49 124.916 48.15C125.356 47.81 125.576 47.22 125.576 46.38V44.01H123.956C122.996 44.01 122.276 44.21 121.796 44.61C121.336 45.01 121.106 45.58 121.106 46.32V46.8C121.106 47.44 121.296 47.91 121.676 48.21C122.056 48.51 122.556 48.66 123.176 48.66ZM133.565 49.02H135.365V31.59L133.565 31.2V29.49L139.925 28.2V49.02H141.725V51H133.565V49.02ZM150.04 51.36C149.08 51.36 148.21 51.17 147.43 50.79C146.67 50.39 146.02 49.83 145.48 49.11C144.94 48.39 144.52 47.53 144.22 46.53C143.94 45.51 143.8 44.38 143.8 43.14C143.8 41.9 143.94 40.78 144.22 39.78C144.52 38.76 144.94 37.89 145.48 37.17C146.02 36.45 146.67 35.9 147.43 35.52C148.21 35.12 149.08 34.92 150.04 34.92C150.6 34.92 151.1 35 151.54 35.16C152 35.3 152.4 35.49 152.74 35.73C153.1 35.97 153.4 36.25 153.64 36.57C153.88 36.89 154.07 37.22 154.21 37.56H154.36V31.59L152.56 31.2V29.49L158.92 28.2V47.97L160.72 48.36V50.07L154.36 51.36V48.66H154.21C153.93 49.36 153.43 49.99 152.71 50.55C152.01 51.09 151.12 51.36 150.04 51.36ZM151.57 48.6C152.37 48.6 153.03 48.35 153.55 47.85C154.09 47.35 154.36 46.68 154.36 45.84V40.41C154.36 39.57 154.09 38.9 153.55 38.4C153.03 37.9 152.37 37.65 151.57 37.65C150.73 37.65 150.03 37.94 149.47 38.52C148.91 39.1 148.63 39.95 148.63 41.07V45.18C148.63 46.3 148.91 47.15 149.47 47.73C150.03 48.31 150.73 48.6 151.57 48.6ZM170.225 49.2C172.065 49.2 172.985 48.1 172.985 45.9V40.38C172.985 38.18 172.065 37.08 170.225 37.08C168.385 37.08 167.465 38.18 167.465 40.38V45.9C167.465 48.1 168.385 49.2 170.225 49.2ZM170.225 51.36C169.085 51.36 168.045 51.18 167.105 50.82C166.185 50.44 165.385 49.9 164.705 49.2C164.045 48.5 163.535 47.64 163.175 46.62C162.815 45.6 162.635 44.44 162.635 43.14C162.635 41.84 162.815 40.68 163.175 39.66C163.535 38.64 164.045 37.78 164.705 37.08C165.385 36.38 166.185 35.85 167.105 35.49C168.045 35.11 169.085 34.92 170.225 34.92C171.365 34.92 172.395 35.11 173.315 35.49C174.255 35.85 175.055 36.38 175.715 37.08C176.395 37.78 176.915 38.64 177.275 39.66C177.635 40.68 177.815 41.84 177.815 43.14C177.815 44.44 177.635 45.6 177.275 46.62C176.915 47.64 176.395 48.5 175.715 49.2C175.055 49.9 174.255 50.44 173.315 50.82C172.395 51.18 171.365 51.36 170.225 51.36ZM187.159 49.02H189.259V32.04H187.159V30.06H203.869V35.64H200.389V32.22H194.119V39.45H198.079V37.65H200.299V43.41H198.079V41.61H194.119V49.02H196.969V51H187.159V49.02ZM209.487 33.21C208.647 33.21 207.987 32.98 207.507 32.52C207.047 32.06 206.817 31.44 206.817 30.66V30.51C206.817 29.73 207.047 29.11 207.507 28.65C207.987 28.19 208.647 27.96 209.487 27.96C210.327 27.96 210.977 28.19 211.437 28.65C211.917 29.11 212.157 29.73 212.157 30.51V30.66C212.157 31.44 211.917 32.06 211.437 32.52C210.977 32.98 210.327 33.21 209.487 33.21ZM205.437 49.02H207.237V38.31L205.437 37.92V36.21L211.797 34.92V49.02H213.597V51H205.437V49.02ZM215.486 49.02H217.286V38.31L215.486 37.92V36.21L221.756 34.92V37.89H221.906C222.186 37.09 222.686 36.4 223.406 35.82C224.126 35.22 225.116 34.92 226.376 34.92C228.296 34.92 229.646 35.41 230.426 36.39C231.226 37.35 231.626 38.8 231.626 40.74V49.02H233.426V51H225.416V49.02H227.066V40.89C227.066 39.83 226.876 39.08 226.496 38.64C226.136 38.18 225.516 37.95 224.636 37.95C224.296 37.95 223.956 38 223.616 38.1C223.276 38.18 222.976 38.32 222.716 38.52C222.456 38.7 222.246 38.94 222.086 39.24C221.926 39.52 221.846 39.87 221.846 40.29V49.02H223.496V51H215.486V49.02ZM240.089 51.36C238.389 51.36 237.149 50.97 236.369 50.19C235.609 49.39 235.229 48.28 235.229 46.86C235.229 43.76 237.519 42.21 242.099 42.21H244.199V40.5C244.199 39.28 243.969 38.36 243.509 37.74C243.049 37.12 242.249 36.81 241.109 36.81C240.689 36.81 240.329 36.84 240.029 36.9C239.729 36.96 239.469 37.04 239.249 37.14V37.29C239.449 37.39 239.639 37.57 239.819 37.83C240.019 38.09 240.119 38.44 240.119 38.88C240.119 39.48 239.929 39.99 239.549 40.41C239.169 40.81 238.599 41.01 237.839 41.01C237.239 41.01 236.739 40.8 236.339 40.38C235.939 39.96 235.739 39.43 235.739 38.79C235.739 38.31 235.879 37.84 236.159 37.38C236.439 36.9 236.859 36.48 237.419 36.12C237.979 35.76 238.669 35.47 239.489 35.25C240.329 35.03 241.289 34.92 242.369 34.92C244.549 34.92 246.159 35.39 247.199 36.33C248.239 37.25 248.759 38.56 248.759 40.26V49.02H250.559V50.73C250.219 50.93 249.779 51.08 249.239 51.18C248.699 51.3 248.139 51.36 247.559 51.36C246.459 51.36 245.679 51.11 245.219 50.61C244.779 50.09 244.559 49.45 244.559 48.69V48.63H244.379C244.239 48.97 244.059 49.3 243.839 49.62C243.639 49.94 243.369 50.23 243.029 50.49C242.709 50.75 242.309 50.96 241.829 51.12C241.349 51.28 240.769 51.36 240.089 51.36ZM241.799 48.66C242.539 48.66 243.119 48.49 243.539 48.15C243.979 47.81 244.199 47.22 244.199 46.38V44.01H242.579C241.619 44.01 240.899 44.21 240.419 44.61C239.959 45.01 239.729 45.58 239.729 46.32V46.8C239.729 47.44 239.919 47.91 240.299 48.21C240.679 48.51 241.179 48.66 241.799 48.66ZM252.488 49.02H254.288V38.31L252.488 37.92V36.21L258.758 34.92V37.89H258.908C259.188 37.09 259.688 36.4 260.408 35.82C261.128 35.22 262.118 34.92 263.378 34.92C265.298 34.92 266.648 35.41 267.428 36.39C268.228 37.35 268.628 38.8 268.628 40.74V49.02H270.428V51H262.418V49.02H264.068V40.89C264.068 39.83 263.878 39.08 263.498 38.64C263.138 38.18 262.518 37.95 261.638 37.95C261.298 37.95 260.958 38 260.618 38.1C260.278 38.18 259.978 38.32 259.718 38.52C259.458 38.7 259.248 38.94 259.088 39.24C258.928 39.52 258.848 39.87 258.848 40.29V49.02H260.498V51H252.488V49.02ZM280.061 51.36C278.801 51.36 277.691 51.15 276.731 50.73C275.791 50.31 274.991 49.73 274.331 48.99C273.691 48.25 273.201 47.38 272.861 46.38C272.541 45.38 272.381 44.29 272.381 43.11C272.381 41.79 272.591 40.63 273.011 39.63C273.431 38.61 274.001 37.75 274.721 37.05C275.461 36.35 276.321 35.82 277.301 35.46C278.301 35.1 279.371 34.92 280.511 34.92C282.351 34.92 283.761 35.3 284.741 36.06C285.741 36.82 286.241 37.78 286.241 38.94C286.241 39.7 286.031 40.31 285.611 40.77C285.191 41.21 284.611 41.43 283.871 41.43C283.131 41.43 282.561 41.24 282.161 40.86C281.761 40.46 281.561 39.94 281.561 39.3C281.561 38.78 281.691 38.35 281.951 38.01C282.231 37.67 282.541 37.42 282.881 37.26V37.08C282.681 37.02 282.441 36.96 282.161 36.9C281.901 36.84 281.541 36.81 281.081 36.81C279.861 36.81 278.911 37.2 278.231 37.98C277.551 38.74 277.211 39.84 277.211 41.28V44.4C277.211 45.72 277.521 46.73 278.141 47.43C278.761 48.11 279.621 48.45 280.721 48.45C281.841 48.45 282.731 48.19 283.391 47.67C284.051 47.15 284.521 46.54 284.801 45.84L286.481 46.83C286.301 47.33 286.041 47.85 285.701 48.39C285.381 48.93 284.961 49.42 284.441 49.86C283.921 50.3 283.301 50.66 282.581 50.94C281.861 51.22 281.021 51.36 280.061 51.36ZM295.969 51.36C294.729 51.36 293.629 51.16 292.669 50.76C291.729 50.34 290.929 49.77 290.269 49.05C289.629 48.31 289.139 47.44 288.799 46.44C288.459 45.42 288.289 44.31 288.289 43.11C288.289 41.85 288.459 40.71 288.799 39.69C289.159 38.67 289.659 37.81 290.299 37.11C290.959 36.41 291.739 35.87 292.639 35.49C293.559 35.11 294.579 34.92 295.699 34.92C296.819 34.92 297.829 35.09 298.729 35.43C299.629 35.77 300.389 36.26 301.009 36.9C301.649 37.52 302.139 38.28 302.479 39.18C302.819 40.08 302.989 41.08 302.989 42.18V43.2H293.119V44.4C293.119 45.74 293.469 46.75 294.169 47.43C294.869 48.11 295.799 48.45 296.959 48.45C298.039 48.45 298.909 48.21 299.569 47.73C300.229 47.23 300.699 46.63 300.979 45.93L302.629 46.92C302.449 47.42 302.189 47.93 301.849 48.45C301.509 48.97 301.069 49.45 300.529 49.89C299.989 50.31 299.339 50.66 298.579 50.94C297.819 51.22 296.949 51.36 295.969 51.36ZM293.119 41.31H298.279V40.89C298.279 39.45 298.049 38.44 297.589 37.86C297.129 37.28 296.499 36.99 295.699 36.99C294.899 36.99 294.269 37.28 293.809 37.86C293.349 38.44 293.119 39.45 293.119 40.89V41.31Z" fill="#11180F"/>
</svg>
