<svg xmlns="http://www.w3.org/2000/svg" xmlns:xlink="http://www.w3.org/1999/xlink" width="500" zoomAndPan="magnify" viewBox="0 0 375 149.999998" height="200" preserveAspectRatio="xMidYMid meet" version="1.2"><defs/><g id="6631ab0ef0"><g style="fill:#000000;fill-opacity:1;"><g transform="translate(0.29919, 105.35673)"><path style="stroke:none" d="M 2.28125 -60.828125 C 2.28125 -65.484375 3.53125 -69.78125 6.03125 -73.71875 C 8.53125 -77.65625 11.914062 -80.832031 16.1875 -83.25 C 20.46875 -85.664062 25.273438 -86.875 30.609375 -86.875 C 33.742188 -86.875 36.535156 -86.382812 38.984375 -85.40625 C 41.441406 -84.4375 43.664062 -83.296875 45.65625 -81.984375 C 47.644531 -80.671875 49.484375 -79.523438 51.171875 -78.546875 C 52.867188 -77.578125 54.476562 -77.09375 56 -77.09375 C 59.21875 -77.09375 61.289062 -77.914062 62.21875 -79.5625 C 63.15625 -81.21875 63.625 -83.441406 63.625 -86.234375 L 66.546875 -86.234375 C 66.972656 -82.765625 67.015625 -79.1875 66.671875 -75.5 C 66.335938 -71.820312 65.40625 -68.414062 63.875 -65.28125 C 62.351562 -62.144531 60.109375 -59.601562 57.140625 -57.65625 C 54.179688 -55.707031 50.332031 -54.734375 45.59375 -54.734375 C 42.457031 -54.734375 39.679688 -55.429688 37.265625 -56.828125 C 34.859375 -58.222656 32.679688 -59.957031 30.734375 -62.03125 C 28.785156 -64.113281 27.023438 -66.234375 25.453125 -68.390625 C 23.890625 -70.546875 22.367188 -72.40625 20.890625 -73.96875 C 19.410156 -75.539062 17.882812 -76.492188 16.3125 -76.828125 C 14.75 -77.171875 13.035156 -76.582031 11.171875 -75.0625 C 9.140625 -73.363281 8.820312 -71.265625 10.21875 -68.765625 C 11.613281 -66.273438 14.554688 -63.738281 19.046875 -61.15625 C 23.535156 -58.570312 29.335938 -56.265625 36.453125 -54.234375 C 39.160156 -53.472656 42.351562 -52.390625 46.03125 -50.984375 C 49.71875 -49.585938 53.335938 -47.765625 56.890625 -45.515625 C 60.453125 -43.273438 63.414062 -40.546875 65.78125 -37.328125 C 68.15625 -34.117188 69.34375 -30.3125 69.34375 -25.90625 C 69.34375 -21.164062 68.070312 -16.765625 65.53125 -12.703125 C 62.988281 -8.640625 59.554688 -5.359375 55.234375 -2.859375 C 50.921875 -0.359375 46.015625 0.890625 40.515625 0.890625 C 37.378906 0.890625 34.5 0.382812 31.875 -0.625 C 29.25 -1.644531 26.835938 -2.789062 24.640625 -4.0625 C 22.441406 -5.332031 20.410156 -6.472656 18.546875 -7.484375 C 16.679688 -8.503906 14.941406 -9.015625 13.328125 -9.015625 C 10.203125 -9.015625 8.148438 -8.1875 7.171875 -6.53125 C 6.203125 -4.882812 5.71875 -2.664062 5.71875 0.125 L 2.921875 0.125 C 2.410156 -3.34375 2.34375 -6.914062 2.71875 -10.59375 C 3.101562 -14.28125 4.054688 -17.691406 5.578125 -20.828125 C 7.109375 -23.960938 9.351562 -26.503906 12.3125 -28.453125 C 15.28125 -30.398438 19.09375 -31.375 23.75 -31.375 C 26.882812 -31.375 29.71875 -30.671875 32.25 -29.265625 C 34.789062 -27.867188 37.097656 -26.113281 39.171875 -24 C 41.253906 -21.882812 43.179688 -19.742188 44.953125 -17.578125 C 46.734375 -15.421875 48.425781 -13.5625 50.03125 -12 C 51.644531 -10.4375 53.253906 -9.484375 54.859375 -9.140625 C 56.472656 -8.804688 58.164062 -9.398438 59.9375 -10.921875 C 61.96875 -12.703125 62.070312 -14.90625 60.25 -17.53125 C 58.4375 -20.15625 55.140625 -22.820312 50.359375 -25.53125 C 45.578125 -28.238281 39.585938 -30.648438 32.390625 -32.765625 C 26.628906 -34.460938 21.460938 -36.410156 16.890625 -38.609375 C 12.316406 -40.804688 8.738281 -43.660156 6.15625 -47.171875 C 3.570312 -50.691406 2.28125 -55.242188 2.28125 -60.828125 Z M 2.28125 -60.828125 "/></g></g><g style="fill:#000000;fill-opacity:1;"><g transform="translate(64.176926, 105.35673)"><path style="stroke:none" d="M 39.875 0 L 2.28125 0 C 2.28125 -4.570312 2.957031 -9.351562 4.3125 -14.34375 C 5.664062 -19.34375 7.421875 -24.296875 9.578125 -29.203125 C 11.742188 -34.117188 14.03125 -38.734375 16.4375 -43.046875 C 18.851562 -47.367188 21.117188 -51.140625 23.234375 -54.359375 C 24.679688 -56.554688 26.25 -58.753906 27.9375 -60.953125 C 29.632812 -63.160156 31.285156 -65.28125 32.890625 -67.3125 C 31.285156 -72.644531 29.71875 -76.664062 28.1875 -79.375 C 26.664062 -82.082031 24.46875 -83.4375 21.59375 -83.4375 L 21.59375 -86.734375 C 28.019531 -86.734375 33.664062 -85.882812 38.53125 -84.1875 C 43.40625 -82.5 47.597656 -80.257812 51.109375 -77.46875 C 54.628906 -74.675781 57.53125 -71.539062 59.8125 -68.0625 C 62.101562 -64.59375 63.84375 -61.082031 65.03125 -57.53125 C 67.738281 -49.40625 69.976562 -41.65625 71.75 -34.28125 C 73.53125 -26.914062 75.691406 -20.269531 78.234375 -14.34375 C 79.835938 -10.707031 82.015625 -8.695312 84.765625 -8.3125 C 87.523438 -7.9375 89.921875 -8.804688 91.953125 -10.921875 L 94.109375 -8.640625 C 91.566406 -5.078125 88.453125 -2.597656 84.765625 -1.203125 C 81.085938 0.191406 77.640625 0.890625 74.421875 0.890625 C 69.765625 0.890625 65.550781 -0.25 61.78125 -2.53125 C 58.019531 -4.820312 54.828125 -7.804688 52.203125 -11.484375 C 49.578125 -15.171875 47.539062 -19.085938 46.09375 -23.234375 L 27.171875 -23.234375 C 28.617188 -18.671875 30.460938 -14.351562 32.703125 -10.28125 C 34.941406 -6.21875 37.332031 -2.789062 39.875 0 Z M 45.078125 -26.28125 C 43.222656 -32.125 41.382812 -38.347656 39.5625 -44.953125 C 37.738281 -51.554688 35.894531 -57.820312 34.03125 -63.75 C 33.269531 -62.65625 32.507812 -61.597656 31.75 -60.578125 C 30.988281 -59.566406 30.226562 -58.46875 29.46875 -57.28125 C 26.582031 -52.957031 25.015625 -48.066406 24.765625 -42.609375 C 24.515625 -37.148438 25.066406 -31.707031 26.421875 -26.28125 Z M 45.078125 -26.28125 "/></g></g><g style="fill:#000000;fill-opacity:1;"><g transform="translate(145.834289, 105.35673)"><path style="stroke:none" d="M 69.71875 -33.40625 C 70.226562 -31.113281 70.523438 -28.484375 70.609375 -25.515625 C 70.691406 -22.554688 70.414062 -19.53125 69.78125 -16.4375 C 69.144531 -13.351562 67.976562 -10.5 66.28125 -7.875 C 64.59375 -5.25 62.179688 -3.128906 59.046875 -1.515625 C 55.921875 0.0859375 51.941406 0.890625 47.109375 0.890625 C 43.304688 0.890625 40.09375 0.425781 37.46875 -0.5 C 34.84375 -1.4375 32.578125 -2.582031 30.671875 -3.9375 C 28.765625 -5.289062 27.070312 -6.625 25.59375 -7.9375 C 24.113281 -9.25 22.671875 -10.367188 21.265625 -11.296875 C 19.867188 -12.234375 18.285156 -12.703125 16.515625 -12.703125 C 13.546875 -12.703125 11.320312 -12.066406 9.84375 -10.796875 C 8.363281 -9.523438 7.367188 -7.914062 6.859375 -5.96875 C 6.347656 -4.019531 6.09375 -2.03125 6.09375 0 L 2.921875 0 L 2.921875 -86.109375 L 30.734375 -86.109375 L 30.734375 -46.359375 C 30.734375 -43.390625 30.054688 -41.097656 28.703125 -39.484375 C 27.347656 -37.878906 25.609375 -36.546875 23.484375 -35.484375 C 21.367188 -34.429688 19.171875 -33.25 16.890625 -31.9375 C 14.609375 -30.625 12.554688 -28.867188 10.734375 -26.671875 C 8.910156 -24.472656 7.578125 -21.382812 6.734375 -17.40625 C 9.523438 -22.644531 13.25 -26.40625 17.90625 -28.6875 C 22.5625 -30.976562 27.09375 -32.125 31.5 -32.125 C 34.625 -32.125 37.457031 -31.613281 40 -30.59375 C 42.539062 -29.582031 44.847656 -28.441406 46.921875 -27.171875 C 48.992188 -25.898438 50.898438 -24.753906 52.640625 -23.734375 C 54.378906 -22.722656 56.007812 -22.21875 57.53125 -22.21875 C 59.644531 -22.21875 61.398438 -22.875 62.796875 -24.1875 C 64.191406 -25.5 65.226562 -27.046875 65.90625 -28.828125 C 66.582031 -30.609375 66.796875 -32.175781 66.546875 -33.53125 Z M 69.71875 -33.40625 "/></g></g><g style="fill:#000000;fill-opacity:1;"><g transform="translate(210.981978, 105.35673)"><path style="stroke:none" d="M 32.890625 0.890625 C 31.535156 0.890625 30.070312 0.800781 28.5 0.625 C 26.9375 0.457031 25.476562 0.25 24.125 0 L 2.921875 0 L 2.921875 -59.4375 C 2.921875 -64.9375 3.875 -69.460938 5.78125 -73.015625 C 7.6875 -76.578125 10.140625 -79.375 13.140625 -81.40625 C 16.148438 -83.4375 19.410156 -84.875 22.921875 -85.71875 C 26.429688 -86.570312 29.753906 -87 32.890625 -87 C 38.816406 -87 44.382812 -85.851562 49.59375 -83.5625 C 54.800781 -81.28125 59.375 -78.128906 63.3125 -74.109375 C 67.25 -70.085938 70.335938 -65.429688 72.578125 -60.140625 C 74.828125 -54.847656 75.953125 -49.148438 75.953125 -43.046875 C 75.953125 -36.953125 74.828125 -31.257812 72.578125 -25.96875 C 70.335938 -20.675781 67.25 -16.019531 63.3125 -12 C 59.375 -7.976562 54.800781 -4.820312 49.59375 -2.53125 C 44.382812 -0.25 38.816406 0.890625 32.890625 0.890625 Z M 18.28125 -77.984375 C 16.164062 -78.566406 14.597656 -78.476562 13.578125 -77.71875 C 12.566406 -76.957031 12 -75.941406 11.875 -74.671875 C 11.75 -73.398438 11.894531 -72.21875 12.3125 -71.125 C 12.90625 -69.59375 13.921875 -68.335938 15.359375 -67.359375 C 16.804688 -66.390625 18.394531 -65.414062 20.125 -64.4375 C 21.863281 -63.46875 23.535156 -62.347656 25.140625 -61.078125 C 26.753906 -59.816406 28.085938 -58.144531 29.140625 -56.0625 C 30.203125 -53.988281 30.734375 -51.300781 30.734375 -48 L 30.734375 -20.0625 C 35.222656 -15.15625 39.601562 -11.597656 43.875 -9.390625 C 48.15625 -7.191406 51.609375 -6.898438 54.234375 -8.515625 C 56.679688 -10.035156 57.945312 -12.972656 58.03125 -17.328125 C 58.125 -21.691406 57.148438 -26.859375 55.109375 -32.828125 C 53.078125 -38.796875 50.070312 -44.914062 46.09375 -51.1875 C 43.132812 -55.925781 39.960938 -60.195312 36.578125 -64 C 33.191406 -67.8125 29.910156 -70.925781 26.734375 -73.34375 C 23.554688 -75.757812 20.738281 -77.304688 18.28125 -77.984375 Z M 18.28125 -77.984375 "/></g></g><g style="fill:#000000;fill-opacity:1;"><g transform="translate(284.003566, 105.35673)"><path style="stroke:none" d="M 45.34375 -86.875 C 51.351562 -86.875 56.9375 -85.75 62.09375 -83.5 C 67.257812 -81.257812 71.832031 -78.128906 75.8125 -74.109375 C 79.789062 -70.085938 82.878906 -65.429688 85.078125 -60.140625 C 87.285156 -54.847656 88.390625 -49.148438 88.390625 -43.046875 C 88.390625 -36.953125 87.285156 -31.257812 85.078125 -25.96875 C 82.878906 -20.675781 79.789062 -16.019531 75.8125 -12 C 71.832031 -7.976562 67.257812 -4.820312 62.09375 -2.53125 C 56.9375 -0.25 51.351562 0.890625 45.34375 0.890625 C 39.414062 0.890625 33.847656 -0.25 28.640625 -2.53125 C 23.429688 -4.820312 18.859375 -7.976562 14.921875 -12 C 10.984375 -16.019531 7.890625 -20.675781 5.640625 -25.96875 C 3.398438 -31.257812 2.28125 -36.953125 2.28125 -43.046875 C 2.28125 -49.148438 3.398438 -54.847656 5.640625 -60.140625 C 7.890625 -65.429688 10.984375 -70.085938 14.921875 -74.109375 C 18.859375 -78.128906 23.429688 -81.257812 28.640625 -83.5 C 33.847656 -85.75 39.414062 -86.875 45.34375 -86.875 Z M 66.796875 -8.515625 C 69.253906 -10.035156 70.503906 -12.972656 70.546875 -17.328125 C 70.585938 -21.691406 69.59375 -26.859375 67.5625 -32.828125 C 65.53125 -38.796875 62.523438 -44.914062 58.546875 -51.1875 C 54.648438 -57.53125 50.476562 -62.945312 46.03125 -67.4375 C 41.59375 -71.925781 37.40625 -75.097656 33.46875 -76.953125 C 29.53125 -78.816406 26.332031 -78.988281 23.875 -77.46875 C 21.5 -75.945312 20.269531 -73.023438 20.1875 -68.703125 C 20.101562 -64.390625 21.097656 -59.25 23.171875 -53.28125 C 25.242188 -47.3125 28.226562 -41.148438 32.125 -34.796875 C 36.101562 -28.441406 40.316406 -23.019531 44.765625 -18.53125 C 49.210938 -14.050781 53.40625 -10.898438 57.34375 -9.078125 C 61.28125 -7.253906 64.429688 -7.066406 66.796875 -8.515625 Z M 66.796875 -8.515625 "/></g></g></g></svg>